<svg xmlns:xlink="http://www.w3.org/1999/xlink" xmlns="http://www.w3.org/2000/svg" viewBox="0 0 18 19" width="18" height="19"><path fill-rule="evenodd" clip-rule="evenodd" d="M9.5345 5.6644c0-1.8233 1.4781-3.3014 3.3014-3.3014 1.8233 0 3.3014 1.4781 3.3014 3.3014 0 1.8233-1.4781 3.3014-3.3014 3.3014-1.8233 0-3.3014-1.478-3.3014-3.3014ZM1.863 13.3357c0-1.8233 1.4781-3.3014 3.3014-3.3014 1.8233 0 3.3014 1.4781 3.3014 3.3014 0 1.8233-1.478 3.3014-3.3014 3.3014-1.8233 0-3.3014-1.4781-3.3014-3.3014Zm8.6715-3.3014c-.5523 0-1 .4477-1 1v3.6028c0 1.1045.8954 2 2 2h2.6028c1.1045 0 2-.8955 2-2v-3.6028c0-.5523-.4477-1-1-1h-4.6028ZM1.863 3.363c0-.5522.4478-1 1-1h4.6028c.5523 0 1 .4478 1 1v3.6028c0 1.1046-.8954 2-2 2H3.863c-1.1045 0-2-.8954-2-2V3.363Z"></path></svg>