<svg xmlns:xlink="http://www.w3.org/1999/xlink" xmlns="http://www.w3.org/2000/svg" width="36" height="37" fill="none"><path d="M35.656 9.085L28.8.27A.697.697 0 0027.698.27L20.84 9.084a.45.45 0 00.354.725h3.636v8.117c0 .582-.4 1.088-.966 1.22l-.893.211 5.342 1.258a7.99 7.99 0 012.998 1.432 5.72 5.72 0 00.352-1.96V9.808H35.3c.17 0 .328-.098.403-.253a.443.443 0 00-.047-.471zM4.45 25.77c-.046.086-.097.17-.138.26l-3.145 6.92a2.156 2.156 0 001.965 3.051h4.426c.817 0 1.564-.461 1.929-1.192l2.557-5.115c.167-.333.472-.574.834-.66l.15-.035-4.807-1.132a7.958 7.958 0 01-3.772-2.097z" fill="#E9EFFF"/><path d="M31.688 26.03a5.72 5.72 0 00-3.895-3.2l-15.66-3.683a1.256 1.256 0 01-.967-1.221V9.809h3.636a.449.449 0 00.355-.725L8.3.27A.692.692 0 007.751 0a.7.7 0 00-.55.27L.343 9.084a.45.45 0 00.354.725h3.636v10.276a5.716 5.716 0 004.407 5.564l14.38 3.384c.362.086.668.327.833.66l2.558 5.115A2.156 2.156 0 0028.442 36h4.425a2.156 2.156 0 001.965-3.05l-3.144-6.92z" fill="#E9EFFF"/></svg>