<svg xmlns:xlink="http://www.w3.org/1999/xlink" fill="none" xmlns="http://www.w3.org/2000/svg" viewBox="0 0 26 26" class="header__menu-item-icon" width="26" height="26"><path d="M14.896 1.0834a.812.812 0 0 0-.8125.8125v1.4144c.391.1133.7643.2435 1.0833.3947.1874.0888.3672.1772.5417.2655V1.8959a.8121.8121 0 0 0-.8125-.8125Zm.8125 2.8871v4.967c0 .0564-.0094.1099-.0159.164-.0818.67-.6466 1.1902-1.3383 1.1902-.748 0-1.3542-.6061-1.3542-1.3542 0-.6548.4653-1.201 1.0834-1.3266V3.3103c-1.4977-.4333-3.2672-.5998-3.3484-.602-.2969-.0124-.5806.1521-.7279.4137l-7.195 12.7958a.8156.8156 0 0 0 .0243.8369c.066.1029 1.6473 2.5387 4.4412 4.1101 2.795 1.5714 5.6984 1.6572 5.8208 1.6599h.0191a.8124.8124 0 0 0 .7077-.4147l7.1951-12.7958a.8111.8111 0 0 0-.0233-.8358c-.0574-.0888-1.256-1.9239-3.3886-3.4352-.0634-.0481-.8487-.5402-1.9-1.0727Zm5.4166 7.9219-6.1191 10.882c-.1089.1933-.2466.3631-.4031.511 3.328-.064 5.9647-1.3783 6.0779-1.4357a.8126.8126 0 0 0 .4443-.7247v-9.2326Zm-9.4739.2973a.807.807 0 0 1 .4634.1015c.3906.2205.5294.7155.31 1.1066l-1.7043 3.031a.8131.8131 0 0 1-.7089.4147.8088.8088 0 0 1-.3978-.1047.8128.8128 0 0 1-.31-1.1066l1.7044-3.031a.8127.8127 0 0 1 .6432-.4115Z" fill="#6B6D7B"></path></svg>