<svg xmlns:xlink="http://www.w3.org/1999/xlink" xmlns="http://www.w3.org/2000/svg" fill="none" viewBox="0 0 47 46" width="47"  height="46" ><path d="M26.5146 1.9167c-.7945 0-1.4375.643-1.4375 1.4375v2.5026c.6919.2003 1.3522.4308 1.9166.6981.3316.1572.6498.3136.9584.4698V3.3542c0-.7944-.6431-1.4375-1.4375-1.4375Zm1.4375 5.108v8.7879c0 .0996-.0166.1943-.0281.2901-.1447 1.1855-1.144 2.1057-2.3678 2.1057-1.3234 0-2.3958-1.0724-2.3958-2.3958 0-1.1586.8232-2.1249 1.9167-2.3472V5.8568c-2.6498-.7667-5.7804-1.0612-5.9241-1.065-.5252-.022-1.0271.269-1.2878.7318L5.1355 28.1624a1.4427 1.4427 0 0 0 .043 1.4805c.117.1821 2.9145 4.4916 7.8576 7.2717 4.945 2.7802 10.0818 2.932 10.2984 2.9368h.0337c.5184 0 .9972-.2804 1.2521-.7337l12.7298-22.6388a1.4354 1.4354 0 0 0-.0412-1.4787c-.1016-.1571-2.2222-3.4038-5.9952-6.0775-.1121-.0853-1.5015-.956-3.3616-1.898Zm9.5833 14.0157L26.7092 40.2931c-.1926.3422-.4362.6425-.7131.9041 5.888-.1131 10.5529-2.4384 10.7532-2.54a1.4377 1.4377 0 0 0 .7861-1.2821V21.0404Zm-16.7615.5259c.276-.0226.5604.0338.8198.1797.691.3901.9366 1.2659.5485 1.9579l-3.0154 5.3625a1.4386 1.4386 0 0 1-1.2541.7337 1.4315 1.4315 0 0 1-.7038-.1853c-.6919-.3891-.9375-1.2659-.5484-1.9578l3.0154-5.3626c.2432-.4324.678-.6904 1.138-.7281Z" fill="url(#a)"/><defs><linearGradient id="a" x1="4.9519" y1="1.9167" x2="47.6324" y2="32.5019" gradientUnits="userSpaceOnUse"><stop stop-color="#573E30"/><stop offset="1" stop-color="#FFBC6D"/></linearGradient></defs></svg>