<svg xmlns:xlink="http://www.w3.org/1999/xlink" xmlns="http://www.w3.org/2000/svg" fill="none" viewBox="0 0 26 26" width="139"  height="46" ><g clip-path="url(#a)"><path fill-rule="evenodd" clip-rule="evenodd" d="M2.75 7.432a1.658 1.658 0 0 1-2.077.095 1.65 1.65 0 0 1-.654-1.085c-.067-.44.04-.876.304-1.234.212-.29.505-.499.847-.604a.45.45 0 0 0 .321-.436 1.652 1.652 0 0 1 2.63-1.346c.627.46.848 1.31.53 2.016a.457.457 0 0 0 .144.554l1.168.861a7.685 7.685 0 0 0-1.149 2.255L3.318 7.406a.45.45 0 0 0-.568.026Zm18.454-2.038-1.142.843c.495.69.874 1.448 1.128 2.271l1.492-1.1a.45.45 0 0 1 .568.026 1.658 1.658 0 0 0 2.077.096c.357-.263.587-.65.654-1.086a1.653 1.653 0 0 0-.302-1.233 1.65 1.65 0 0 0-.847-.604.458.458 0 0 1-.321-.437 1.652 1.652 0 0 0-2.633-1.343 1.667 1.667 0 0 0-.529 2.016.455.455 0 0 1-.145.551Zm4.123 13.076a1.658 1.658 0 0 0-2.077.096.45.45 0 0 1-.569.026l-3.142-2.32c.014.199.043.406.083.626.138.73.06 1.28-.238 1.684a1.39 1.39 0 0 1-.411.375l2.231 1.646a.457.457 0 0 1 .145.554 1.669 1.669 0 0 0 .529 2.016 1.652 1.652 0 0 0 2.633-1.343c0-.2.128-.38.32-.437.343-.105.636-.313.848-.604.261-.358.368-.794.302-1.233a1.646 1.646 0 0 0-.654-1.086Zm-5.636-5.232c-.402.539-.818 1.097-.99 1.937-.114.56-.104 1.179.032 1.887.085.46.061.79-.076.976-.167.227-.555.298-.952.344-.059.008-.12.013-.18.02l-.091.008c-.407.038-.828.08-1.164.246-.323.162-.694.504-.632 1.217.043.513-.048.888-.28 1.143-.462.506-1.52.563-2.277.563-1.145 0-1.968-.229-2.38-.66-.247-.263-.358-.612-.337-1.065.033-.706-.345-1.043-.666-1.2-.34-.167-.756-.208-1.16-.246l-.012-.001c-.486-.047-.99-.096-1.183-.357-.174-.231-.136-.663-.076-.985.382-2.031-.33-2.986-.957-3.827l-.002-.003-.001-.002c-.58-.777-1.129-1.512-.905-3.205.55-4.166 4.277-6.359 7.679-6.37 2.25.006 4.436.982 5.847 2.605a6.989 6.989 0 0 1 1.522 2.973c.062.258.112.525.148.794.223 1.693-.325 2.428-.905 3.206l-.002.001Zm-9.779 3.247c.554 0 1.082-.174 1.482-.492.426-.339.661-.797.664-1.29 0-.497-.236-.955-.664-1.294a2.382 2.382 0 0 0-1.482-.491c-.557 0-1.082.174-1.482.491-.428.341-.664.8-.664 1.293 0 .494.236.952.664 1.291.4.318.925.492 1.482.492Zm3.366 3.777c.369 0 .561-.167.659-.322.195-.31.136-.747-.188-1.377-.18-.357-.39-.663-.424-.712l-.004-.006-.005-.005-.007-.01-.004-.004-.003-.005-.012-.012-.014-.014-.015-.015h-.001c-.003-.003-.007-.005-.01-.01l-.01-.006a.157.157 0 0 0-.01-.007l-.004-.005-.002-.001-.002-.002c-.001 0-.002 0-.003-.002l-.022-.014-.014-.007a.07.07 0 0 0-.02-.01l-.018-.007a.037.037 0 0 0-.004-.002l-.003-.001h-.002c-.001-.002-.003-.002-.005-.003l-.003-.001-.021-.008a.03.03 0 0 0-.007-.002.069.069 0 0 0-.018-.005.069.069 0 0 1-.01-.002h-.005l-.003-.001a.03.03 0 0 0-.007-.001l-.01-.002h-.005a.05.05 0 0 0-.007 0c-.004-.003-.011-.003-.016-.003H12.978c-.007.002-.014.002-.019.002l-.01.001-.005.001h-.011l-.002.001-.003.001-.007.001a.066.066 0 0 1-.01.002l-.005.001-.006.002a.028.028 0 0 1-.007.002.034.034 0 0 0-.008.003l-.02.007a.098.098 0 0 1-.01.003.114.114 0 0 0-.008.004l-.016.007-.01.005-.01.005-.014.007-.02.014-.004.002a.013.013 0 0 0-.004.003l-.005.005a.157.157 0 0 0-.01.007l-.002.002-.007.005a.032.032 0 0 0-.007.005l-.005.004-.014.015-.014.014a.011.011 0 0 0-.003.002l-.005.005-.004.005a.112.112 0 0 1-.007.009.112.112 0 0 0-.007.01l-.005.005-.004.005c-.031.047-.24.353-.424.713-.322.63-.379 1.067-.184 1.377.098.155.29.322.66.322a1.443 1.443 0 0 0 .278-.029c.003.002.008.002.012.003h.004l.008.002c.092.017.178.024.254.024Zm2.81-3.777c.556 0 1.082-.174 1.481-.492.428-.339.664-.797.662-1.29 0-.497-.234-.955-.662-1.294a2.382 2.382 0 0 0-1.482-.491c-.556 0-1.082.174-1.482.491-.428.341-.663.8-.663 1.293 0 .494.235.952.663 1.291.4.318.926.492 1.482.492Zm-11.293 4.12 2.225-1.641a1.41 1.41 0 0 1-.402-.363c-.303-.403-.381-.959-.24-1.699.042-.226.068-.434.083-.625l-3.143 2.32a.45.45 0 0 1-.568-.027 1.658 1.658 0 0 0-2.077-.095 1.646 1.646 0 0 0-.654 1.085c-.067.44.04.876.302 1.234.212.291.504.499.847.604.192.06.32.236.32.436a1.652 1.652 0 0 0 2.633 1.343c.627-.46.848-1.31.53-2.016a.462.462 0 0 1 .144-.555Z" fill="#fff"/></g><defs><clipPath id="a"><path fill="#fff" d="M0 0h26v26H0z"/></clipPath></defs></svg>