<svg xmlns:xlink="http://www.w3.org/1999/xlink" xmlns="http://www.w3.org/2000/svg" fill="none" viewBox="0 0 46 46" width="46"  height="46" ><path d="M37.9308 8.0883c-5.6733-5.6542-14.8733-5.6542-20.5083 0-3.9675 3.9291-5.1558 9.5833-3.6225 14.5666l-9.0083 9.0084c-.6325.6516-1.0734 1.9358-.9392 2.8558l.575 4.1783c.2108 1.38 1.495 2.6834 2.875 2.875l4.1783.575c.92.1342 2.2042-.2875 2.8559-.9583l1.5716-1.5717c.3834-.3641.3834-.9775 0-1.3608L12.19 34.5383c-.5558-.5559-.5558-1.4759 0-2.0317.5558-.5558 1.4758-.5558 2.0317 0l3.7375 3.7375c.3641.3642.9775.3642 1.3416 0l4.0634-4.0442c4.9641 1.5525 10.6183.345 14.5666-3.5841 5.6542-5.6542 5.6542-14.8734 0-20.5275ZM27.7917 22.9999c-2.645 0-4.7917-2.1466-4.7917-4.7916s2.1467-4.7917 4.7917-4.7917c2.645 0 4.7916 2.1467 4.7916 4.7917 0 2.645-2.1466 4.7916-4.7916 4.7916Z" fill="url(#a)"/><defs><linearGradient id="a" x1="3.8284" y1="3.8477" x2="47.3403" y2="41.4554" gradientUnits="userSpaceOnUse"><stop stop-color="#573E30"/><stop offset="1" stop-color="#FFBC6D"/></linearGradient></defs></svg>