<svg xmlns:xlink="http://www.w3.org/1999/xlink" xmlns="http://www.w3.org/2000/svg" fill="none" viewBox="0 0 24 24" width="75"  height="31" ><path d="M12 2C9.313 2 7.145 4.188 7.145 6.899v1.665H9.62V6.899A2.385 2.385 0 0 1 12 4.497c1.32 0 2.38 1.07 2.38 2.402v1.665h2.475V6.899C16.855 4.188 14.663 2 12 2zm5.09 7.3H6.887A1.9 1.9 0 0 0 5 11.204v6.968C5 20.288 6.697 22 8.795 22h6.41C17.303 22 19 20.288 19 18.171v-6.968a1.905 1.905 0 0 0-1.91-1.902zm-3.7 8.705c.048.238-.094.428-.33.428h-2.144c-.236 0-.377-.19-.33-.428l.613-2.783a1.591 1.591 0 0 1-.778-1.379c0-.88.707-1.593 1.579-1.593s1.58.713 1.58 1.593c0 .595-.307 1.094-.779 1.38l.59 2.782z" fill="#444556"/></svg>