<svg xmlns:xlink="http://www.w3.org/1999/xlink" fill="none" xmlns="http://www.w3.org/2000/svg" viewBox="0 0 28 28" class="mobile-menu__icon" width="28" height="28"><path fill-rule="evenodd" clip-rule="evenodd" d="M4.6667 2.3334c-1.2887 0-2.3333 1.0446-2.3333 2.3333V10.5c0 1.2887 1.0446 2.3334 2.3333 2.3334H10.5c1.2887 0 2.3334-1.0447 2.3334-2.3334V4.6667c0-1.2887-1.0447-2.3333-2.3334-2.3333H4.6667Zm0 2.3333H10.5V10.5H4.6667V4.6667ZM17.5 2.3334c-1.2886 0-2.3333 1.0446-2.3333 2.3333V10.5c0 1.2887 1.0447 2.3334 2.3333 2.3334h5.8334c1.2886 0 2.3333-1.0447 2.3333-2.3334V4.6667c0-1.2887-1.0447-2.3333-2.3333-2.3333H17.5Zm0 2.3333h5.8334V10.5H17.5V4.6667ZM17.5 15.1667c-1.2886 0-2.3333 1.0447-2.3333 2.3333v5.8334c0 1.2886 1.0447 2.3333 2.3333 2.3333h5.8334c1.2886 0 2.3333-1.0447 2.3333-2.3333V17.5c0-1.2886-1.0447-2.3333-2.3333-2.3333H17.5Zm0 2.3333h5.8334v5.8334H17.5V17.5ZM4.6667 15.1667c-1.2887 0-2.3333 1.0447-2.3333 2.3333v5.8334c0 1.2886 1.0446 2.3333 2.3333 2.3333H10.5c1.2887 0 2.3334-1.0447 2.3334-2.3333V17.5c0-1.2886-1.0447-2.3333-2.3334-2.3333H4.6667Zm0 2.3333H10.5v5.8334H4.6667V17.5Z" fill="#686C7C"></path></svg>