<svg xmlns:xlink="http://www.w3.org/1999/xlink" xmlns="http://www.w3.org/2000/svg" fill="none" viewBox="0 0 47 46" width="47"  height="46" ><path fill-rule="evenodd" clip-rule="evenodd" d="M31.1652 15.7797c0 4.5036-3.5902 8.1147-8.0678 8.1147-4.4775 0-8.0678-3.6111-8.0678-8.1147 0-4.5053 3.5903-8.113 8.0678-8.113 4.4776 0 8.0678 3.6077 8.0678 8.113Zm-8.0677 22.5536c-6.5765 0-12.1918-1.0426-12.1918-5.213 0-4.1721 5.5793-5.2527 12.1918-5.2527 6.5764 0 12.1918 1.0426 12.1918 5.2147 0 4.1705-5.5794 5.251-12.1918 5.251ZM34.6129 15.926c0 2.2958-.6848 4.4345-1.8861 6.2125-.1236.183-.0137.4298.2042.4678.3004.0518.611.0811.9268.0897 3.1492.0829 5.9757-1.9557 6.7566-5.0248 1.1567-4.5588-2.2396-8.6516-6.5644-8.6516-.4703 0-.9199.0501-1.3575.1399-.0601.0138-.1236.0414-.1579.0949-.0412.0656-.0103.1536.0309.2106 1.2991 1.8314 2.0474 4.0651 2.0474 6.461Zm5.2155 9.9731c2.1161.416 3.5079 1.2653 4.0845 2.4995a3.685 3.685 0 0 1 0 3.2003c-.8821 1.9143-3.7258 2.5288-4.831 2.6876-.2283.0345-.4119-.164-.3879-.3935.5646-5.3045-3.9266-7.8196-5.0885-8.3978-.0498-.0259-.0601-.0656-.0549-.0898.0034-.0172.024-.0449.0618-.05 2.5142-.0466 5.2172.2986 6.216.5437Zm-27.2955-3.2032c.3158-.0086.6247-.0362.9268-.0897.2179-.038.3277-.2848.2042-.4678-1.2014-1.778-1.8861-3.9167-1.8861-6.2125 0-2.3959.7482-4.6295 2.0474-6.461.0412-.057.0704-.145.0309-.2106-.0343-.0518-.0995-.0811-.1579-.095-.4393-.0897-.889-.1397-1.3592-.1397-4.3248 0-7.7212 4.0927-6.5627 8.6515.7809 3.0691 3.6074 5.1077 6.7566 5.0248Zm.3064 2.7086c.0051.0259-.0052.0639-.0532.0915-1.1636.5782-5.6549 3.0933-5.0902 8.396.024.2313-.158.4281-.3862.3953-1.1052-.1588-3.949-.7733-4.831-2.6876a3.6734 3.6734 0 0 1 0-3.2003c.5766-1.2342 1.9667-2.0835 4.0828-2.5012 1.0005-.2434 3.7018-.5886 6.2177-.542.0378.0051.0566.0328.0601.0483Z" fill="url(#a)"/><defs><linearGradient id="a" x1="2.1118" y1="7.6668" x2="36.7851" y2="48.8535" gradientUnits="userSpaceOnUse"><stop stop-color="#573E30"/><stop offset="1" stop-color="#FFBC6D"/></linearGradient></defs></svg>