<svg xmlns:xlink="http://www.w3.org/1999/xlink" xmlns="http://www.w3.org/2000/svg" fill="none" viewBox="0 0 31 34" width="31"  height="34" ><path d="M15.5 11.021c-3.3 0-5.97 2.593-5.97 5.799 0 3.205 2.67 5.799 5.97 5.799s6.007-2.594 6.007-5.8c0-3.205-2.707-5.798-6.007-5.798zm3.56 6.807h-3.523a.655.655 0 0 1-.667-.648v-3.962c0-.36.296-.648.667-.648.37 0 .668.288.668.648v3.278h2.855c.37 0 .667.288.667.648 0 .36-.296.684-.667.684z" fill="url(#a)"/><path d="M29.665 7.563 16.835.36a2.713 2.713 0 0 0-2.67 0L1.335 7.563C.519 8.031 0 8.896 0 9.796v14.407c0 .936.52 1.8 1.335 2.233l12.83 7.203c.408.216.853.36 1.335.36s.927-.108 1.335-.36l12.83-7.203c.816-.468 1.335-1.333 1.335-2.233V9.796c0-.9-.52-1.765-1.335-2.233zm-14.24 16.784c-4.264 0-7.712-3.35-7.712-7.528 0-4.142 3.449-7.527 7.75-7.527s7.75 3.35 7.75 7.527c-.037 4.178-3.486 7.528-7.787 7.528z" fill="url(#b)"/><defs><linearGradient id="a" x1="15.5" y1=".008" x2="15.5" y2="33.999" gradientUnits="userSpaceOnUse"><stop stop-color="#55566D"/><stop offset="1" stop-color="#838491"/></linearGradient><linearGradient id="b" x1="15.5" y1=".008" x2="15.5" y2="33.999" gradientUnits="userSpaceOnUse"><stop stop-color="#55566D"/><stop offset="1" stop-color="#838491"/></linearGradient></defs></svg>