<svg xmlns:xlink="http://www.w3.org/1999/xlink" fill="none" xmlns="http://www.w3.org/2000/svg" viewBox="0 0 22 22" width="22"  height="22" ><path d="M16.3711 2H5.6287C3.6247 2 2 3.6247 2 5.6288v10.7424C2 18.3753 3.6246 20 5.6287 20h10.7424c2.0042 0 3.6288-1.6247 3.6288-3.6288V5.6288C19.9999 3.6247 18.3753 2 16.3711 2Zm-.224 7.8527h-.0018a3.182 3.182 0 0 1-.2957.015 3.211 3.211 0 0 1-2.6866-1.452v4.9445c0 2.0183-1.6362 3.6544-3.6545 3.6544-2.0182 0-3.6544-1.6361-3.6544-3.6544s1.6361-3.6545 3.6544-3.6545c.0382 0 .0759.0018.1134.004.0376.0024.075.0052.1125.0073v1.8014c-.075-.009-.1488-.0227-.2259-.0227-1.03 0-1.8648.8352-1.8648 1.8648 0 1.0296.8352 1.8648 1.8648 1.8648 1.0296 0 1.9401-.8116 1.9401-1.842l.018-8.3974h1.7229c.1625 1.545 1.4082 2.7518 2.9576 2.865v2.0018Z" fill="#555A68"></path></svg>