<svg xmlns:xlink="http://www.w3.org/1999/xlink" fill="none" xmlns="http://www.w3.org/2000/svg" viewBox="0 0 26 26" class="header__menu-item-icon" width="26" height="26"><path d="m23.9655 17.9822-3.2132-1.8362 2.4976-7.493a.8121.8121 0 0 0-1.1342-.983l-5.6994 2.8497-2.3872-6.2075a.8123.8123 0 0 0-.7583-.5206.8123.8123 0 0 0-.7583.5206l-2.3752 6.1761L4.993 7.6824a.81.81 0 0 0-.917.0959.813.813 0 0 0-.2372.891l2.4884 6.9675-3.7792 2.3617a.8139.8139 0 0 0-.3814.689c0 .28.1446.5405.3819.689l4.3333 2.7083a.8122.8122 0 0 0 .4307.1235h2.86l.6608-1.625-1.5286-.917c-.4837-.2904-.4263-1.0092.0975-1.2188l1.4311-.5725-.5785-1.7355c-.1733-.52.3938-.975.864-.6928l1.3395.8033.5157-1.8043c.163-.5709.9723-.5709 1.1353 0l.5157 1.8043 1.1689-.779c.5184-.3455 1.1494.2433.8401.7844l-.9257 1.6196 1.6873.5622c.5769.1923.6332.9858.0894 1.2578l-1.7767.8883 1.0833 1.625h1.8959a.8121.8121 0 0 0 .3948-.1024l4.875-2.7083a.8122.8122 0 0 0 .0082-1.4154Z" fill="#6B6D7B"></path></svg>