<svg xmlns:xlink="http://www.w3.org/1999/xlink" xmlns="http://www.w3.org/2000/svg" fill="none" viewBox="0 0 46 46" width="46"  height="46" ><path d="m42.4005 31.8147-5.6848-3.2488 4.4189-13.2566a1.437 1.437 0 0 0-.4217-1.54 1.439 1.439 0 0 0-1.5851-.1994l-10.0836 5.0418-4.2233-10.9825a1.4373 1.4373 0 0 0-1.3417-.921c-.5951 0-1.128.3661-1.3417.921l-4.2023 10.9269L8.834 13.592a1.433 1.433 0 0 0-1.6225.1696 1.4383 1.4383 0 0 0-.4197 1.5764l4.4025 12.3271-6.6863 4.1783a1.4403 1.4403 0 0 0-.6746 1.219c0 .4955.2558.9564.6756 1.219l7.6667 4.7917c.228.1428.4925.2185.7618.2185h5.06l1.1692-2.875-2.7044-1.6225c-.8558-.5136-.7542-1.7853.1725-2.1562l2.5319-1.013-1.0235-3.0705c-.3067-.92.6967-1.725 1.5286-1.2257l2.3699 1.4212.9123-3.1922c.2885-1.0101 1.7202-1.0101 2.0087 0l.9123 3.1922 2.0681-1.3781c.9172-.6114 2.0336.4303 1.4864 1.3877l-1.6378 2.8654 2.9852.9948c1.0206.3402 1.1203 1.7441.1581 2.2252l-3.1433 1.5717 1.9167 2.875h3.3541c.2444 0 .485-.0623.6987-.1811l8.625-4.7917a1.436 1.436 0 0 0 .7388-1.2478 1.4363 1.4363 0 0 0-.7245-1.2563Z" fill="url(#a)"/><defs><linearGradient id="a" x1="3.8334" y1="6.7082" x2="41.1897" y2="45.6243" gradientUnits="userSpaceOnUse"><stop stop-color="#573E30"/><stop offset="1" stop-color="#FFBC6D"/></linearGradient></defs></svg>