<svg xmlns:xlink="http://www.w3.org/1999/xlink" fill="none" xmlns="http://www.w3.org/2000/svg" viewBox="0 0 22 22" width="22"  height="22" ><path d="M20.5879 6.1907c-.2305-.8566-.906-1.532-1.7627-1.7626C17.2601 4 10.9997 4 10.9997 4s-6.2601 0-7.8252.4119c-.8402.2304-1.5322.9223-1.7627 1.7788C1 7.7553 1 11 1 11s0 3.2611.412 4.8093c.2306.8565.906 1.5318 1.7627 1.7625C4.7561 18 11 18 11 18s6.2601 0 7.8252-.4119c.8568-.2305 1.5322-.9058 1.7629-1.7623.4118-1.5647.4118-4.8093.4118-4.8093s.0164-3.2613-.412-4.8258ZM9.0065 13.9976V8.0024L14.2125 11l-5.2058 2.9976Z" fill="#555A68"></path></svg>